<svg xmlns="http://www.w3.org/2000/svg" xmlns:xlink="http://www.w3.org/1999/xlink" viewBox="0,0,256,256" width="35px" height="35px" fill-rule="nonzero"><g fill="#1c1c1c" fill-rule="nonzero" stroke="none" stroke-width="1" stroke-linecap="butt" stroke-linejoin="miter" stroke-miterlimit="10" stroke-dasharray="" stroke-dashoffset="0" font-family="none" font-weight="none" font-size="none" text-anchor="none" style="mix-blend-mode: normal"><path d="M0,256v-256h256v256z" id="bgRectangle"></path></g><g fill="#ffffff" fill-rule="nonzero" stroke="none" stroke-width="1" stroke-linecap="butt" stroke-linejoin="miter" stroke-miterlimit="10" stroke-dasharray="" stroke-dashoffset="0" font-family="none" font-weight="none" font-size="none" text-anchor="none" style="mix-blend-mode: normal"><g transform="scale(4,4)"><path d="M23.77344,12c-10.918,0 -11.77344,0.85444 -11.77344,11.77344v16.45312c0,10.918 0.85544,11.77344 11.77344,11.77344h16.45312c10.918,0 11.77344,-0.85444 11.77344,-11.77344v-16.45312c0,-10.919 -0.85444,-11.77344 -11.77344,-11.77344zM21.16797,16h21.66406c4.793,0 5.16797,0.37497 5.16797,5.16797v21.66406c0,4.793 -0.37597,5.16797 -5.16797,5.16797h-4.21484v-11.96094h4.73633l0.74609,-5.32227h-5.48242c0,0 -0.008,-3.11753 0,-3.89453c0.016,-1.521 1.28691,-2.2903 2.37891,-2.2793c1.092,0.012 3.35352,0.00391 3.35352,0.00391v-4.90625c0,0 -1.95772,-0.25439 -4.01172,-0.27539c-1.726,-0.018 -3.63192,0.45 -5.16992,2c-1.565,1.576 -1.8118,3.92397 -1.8418,6.79297c-0.009,0.829 0,2.55664 0,2.55664h-4.63477v5.32227h4.63477v11.96289h-12.1582c-4.793,0 -5.16797,-0.37597 -5.16797,-5.16797v-21.66406c0,-4.793 0.37497,-5.16797 5.16797,-5.16797z"></path></g></g></svg>