<svg xmlns="http://www.w3.org/2000/svg" xmlns:xlink="http://www.w3.org/1999/xlink" viewBox="0,0,256,256" width="35px" height="35px" fill-rule="nonzero"><g fill="#1c1c1c" fill-rule="nonzero" stroke="none" stroke-width="1" stroke-linecap="butt" stroke-linejoin="miter" stroke-miterlimit="10" stroke-dasharray="" stroke-dashoffset="0" font-family="none" font-weight="none" font-size="none" text-anchor="none" style="mix-blend-mode: normal"><path d="M0,256v-256h256v256z" id="bgRectangle"></path></g><g fill="#ffffff" fill-rule="nonzero" stroke="none" stroke-width="1" stroke-linecap="butt" stroke-linejoin="miter" stroke-miterlimit="10" stroke-dasharray="" stroke-dashoffset="0" font-family="none" font-weight="none" font-size="none" text-anchor="none" style="mix-blend-mode: normal"><g transform="scale(4,4)"><path d="M32,15c-17.062,0 -19.34034,0.17773 -21.52734,2.42773c-2.187,2.25 -2.47266,5.82427 -2.47266,14.57227c0,8.748 0.28566,12.32327 2.47266,14.57227c2.187,2.249 4.46534,2.42773 21.52734,2.42773c17.062,0 19.34034,-0.17873 21.52734,-2.42773c2.187,-2.25 2.47266,-5.82427 2.47266,-14.57227c0,-8.748 -0.28566,-12.32227 -2.47266,-14.57227c-2.187,-2.25 -4.46534,-2.42773 -21.52734,-2.42773zM32,19c13.969,0 17.37916,0.06242 18.53516,1.23242c1.156,1.17 1.46484,4.30558 1.46484,11.76758c0,7.462 -0.30884,10.59758 -1.46484,11.76758c-1.156,1.17 -4.56616,1.23242 -18.53516,1.23242c-13.969,0 -17.37916,-0.06242 -18.53516,-1.23242c-1.156,-1.17 -1.43359,-4.30558 -1.43359,-11.76758c0,-7.462 0.27759,-10.59758 1.43359,-11.76758c1.156,-1.17 4.56616,-1.23242 18.53516,-1.23242zM27.94922,25.01758v13.96484l12.14648,-7.03711z"></path></g></g></svg>